<svg xmlns="http://www.w3.org/2000/svg" viewBox="0 0 128 128" width="128" height="128">
  <!-- Pointed ears -->
  <polygon points="28,50 18,8 52,36" fill="#E8742A"/>
  <polygon points="32,46 24,16 48,36" fill="#F5A060"/>
  <polygon points="100,50 110,8 76,36" fill="#E8742A"/>
  <polygon points="96,46 104,16 80,36" fill="#F5A060"/>
  <!-- Body/head -->
  <circle cx="64" cy="68" r="44" fill="#E8742A"/>
  <!-- White cheeks/snout -->
  <ellipse cx="64" cy="82" rx="28" ry="22" fill="#FFFFFF"/>
  <!-- Forehead accent -->
  <path d="M44 50 L64 42 L84 50 L64 58 Z" fill="#D05A18" opacity="0.4"/>
  <!-- Eyes -->
  <ellipse cx="48" cy="58" rx="5" ry="6" fill="#2D1A00"/>
  <ellipse cx="80" cy="58" rx="5" ry="6" fill="#2D1A00"/>
  <!-- Eye shine -->
  <circle cx="50" cy="56" r="2" fill="#FFFFFF"/>
  <circle cx="82" cy="56" r="2" fill="#FFFFFF"/>
  <!-- Nose -->
  <ellipse cx="64" cy="74" rx="5" ry="3.5" fill="#2D1A00"/>
  <!-- Mouth -->
  <path d="M58 78 Q64 84 70 78" stroke="#CC6040" stroke-width="1.5" fill="none" stroke-linecap="round"/>
  <!-- Blush -->
  <circle cx="38" cy="68" r="5" fill="#F09080" opacity="0.4"/>
  <circle cx="90" cy="68" r="5" fill="#F09080" opacity="0.4"/>
</svg>
