<svg xmlns="http://www.w3.org/2000/svg" viewBox="0 0 128 128" width="128" height="128">
  <!-- Beanie hat positioned at top of avatar -->
  <!-- Pompom -->
  <circle cx="64" cy="10" r="8" fill="#E85050"/>
  <!-- Beanie dome -->
  <path d="M28 42 Q28 8 64 6 Q100 8 100 42 Z" fill="#E85050"/>
  <!-- Knit texture lines -->
  <path d="M34 30 Q64 24 94 30" stroke="#CC3030" stroke-width="1.5" fill="none" opacity="0.5"/>
  <path d="M30 36 Q64 30 98 36" stroke="#CC3030" stroke-width="1.5" fill="none" opacity="0.5"/>
  <!-- Beanie band/cuff -->
  <path d="M26 42 Q26 36 28 34 L100 34 Q102 36 102 42 L100 48 Q64 44 28 48 Z" fill="#CC3030"/>
  <!-- Band texture -->
  <line x1="40" y1="36" x2="40" y2="46" stroke="#B02020" stroke-width="1" opacity="0.4"/>
  <line x1="52" y1="35" x2="52" y2="45" stroke="#B02020" stroke-width="1" opacity="0.4"/>
  <line x1="64" y1="34" x2="64" y2="44" stroke="#B02020" stroke-width="1" opacity="0.4"/>
  <line x1="76" y1="35" x2="76" y2="45" stroke="#B02020" stroke-width="1" opacity="0.4"/>
  <line x1="88" y1="36" x2="88" y2="46" stroke="#B02020" stroke-width="1" opacity="0.4"/>
</svg>
